# xmcd
#
# Track frame offsets:
# 150
# 14397
# 30346
# 43059
# 62093
# 74596
# 88464
# 96770
# 117230
# 140203
# 157270
# 170364
# 196359
#
# Disc length: 3449 seconds
#
# Revision: 1
# Processed by: cddbd v1.5.2PL0 Copyright (c) Steve Scherf et al.
# Submitted via: CedeCatalogueitor 2.6.0.6 http://personales.ya.com/cdcatalogueitor
#
DISCID=bf0d770d
DTITLE=Top Models - Beautiful Señoritas
DYEAR=1900
DGENRE=
TTITLE0=Beautiful Señoritas
TTITLE1=My Burning Light
TTITLE2=Sill Girl, Stupid Boy
TTITLE3=Los In Neverland
TTITLE4=Another Place and Time
TTITLE5=Story Of My Size
TTITLE6=Horin Chic
TTITLE7=En El Calor De La Noche
TTITLE8=Winterime Blues
TTITLE9=Dream A Little Bit
TTITLE10=Gimme All Your Love
TTITLE11=Dema Sera Millor
TTITLE12=
EXTD=
EXTT0=
EXTT1=
EXTT2=
EXTT3=
EXTT4=
EXTT5=
EXTT6=
EXTT7=
EXTT8=
EXTT9=
EXTT10=
EXTT11=
EXTT12=
PLAYORDER=
